<?xml version="1.0" standalone="no"?>
<!DOCTYPE svg PUBLIC "-//W3C//DTD SVG 20010904//EN"
 "http://www.w3.org/TR/2001/REC-SVG-20010904/DTD/svg10.dtd">
<svg version="1.0" xmlns="http://www.w3.org/2000/svg"
 width="223.000000pt" height="172.000000pt" viewBox="0 0 223.000000 172.000000"
 preserveAspectRatio="xMidYMid meet">

<g transform="translate(0.000000,172.000000) scale(0.100000,-0.100000)"
fill="#000000" stroke="none">
<path d="M541 1264 c-30 -38 -33 -158 -5 -202 42 -65 144 -34 144 43 0 26 -16
16 -31 -17 -11 -26 -21 -34 -46 -36 -27 -3 -34 2 -47 27 -9 16 -16 53 -16 81
0 28 7 65 16 81 13 25 20 30 47 27 23 -2 35 -10 45 -30 16 -34 36 -38 26 -5
-12 39 -35 57 -75 57 -29 0 -42 -6 -58 -26z"/>
<path d="M715 1160 l-1 -130 49 0 c40 0 53 5 78 29 27 27 29 35 29 101 0 66
-2 74 -29 101 -24 24 -38 29 -78 29 l-48 0 0 -130z m104 91 c24 -24 36 -79 27
-127 -9 -45 -38 -74 -76 -74 l-30 0 0 110 0 110 30 0 c17 0 39 -9 49 -19z"/>
<path d="M910 1160 c0 -80 4 -130 10 -130 6 0 10 50 10 130 0 80 -4 130 -10
130 -6 0 -10 -50 -10 -130z"/>
<path d="M989 1258 c-29 -47 -24 -177 7 -209 47 -46 134 -16 134 47 0 33 -12
30 -30 -9 -17 -37 -58 -48 -83 -23 -20 20 -31 86 -22 136 8 50 29 72 64 68 18
-2 31 -13 43 -37 13 -26 19 -31 23 -19 7 17 -10 58 -29 70 -6 4 -28 8 -49 8
-31 0 -41 -5 -58 -32z"/>
<path d="M1270 1160 l0 -130 59 0 c51 0 62 3 75 22 22 31 20 74 -4 96 -18 17
-19 20 -5 32 21 17 19 73 -3 93 -12 11 -36 17 -70 17 l-52 0 0 -130z m108 98
c34 -34 -1 -91 -52 -86 -27 3 -31 7 -34 36 -2 19 -1 40 2 48 7 17 67 19 84 2z
m13 -134 c16 -43 -12 -76 -59 -72 -34 3 -37 6 -40 36 -5 52 3 62 48 62 35 0
42 -4 51 -26z"/>
<path d="M1450 1160 c0 -109 2 -130 15 -130 12 0 15 13 15 55 l0 55 39 0 c44
0 51 -10 51 -71 0 -29 4 -39 16 -39 13 0 15 8 9 53 -4 28 -13 56 -21 60 -11 6
-9 12 6 27 26 26 26 74 0 100 -15 15 -33 20 -75 20 l-55 0 0 -130z m108 98 c7
-7 12 -27 12 -45 0 -36 -21 -53 -64 -53 -25 0 -26 3 -26 55 l0 55 33 0 c18 0
38 -5 45 -12z"/>
<path d="M1160 1130 c0 -5 18 -10 40 -10 22 0 40 5 40 10 0 6 -18 10 -40 10
-22 0 -40 -4 -40 -10z"/>
<path d="M473 923 c-40 -8 -81 -56 -98 -118 -24 -81 -18 -267 11 -315 31 -53
67 -74 128 -74 79 0 125 37 141 112 7 32 6 32 -34 32 -32 0 -41 -4 -47 -22
-16 -55 -65 -75 -97 -40 -26 28 -40 118 -34 209 6 89 25 138 57 148 27 9 68
-18 76 -50 5 -21 12 -25 45 -25 45 0 48 8 23 70 -10 24 -28 47 -44 55 -32 16
-94 25 -127 18z"/>
<path d="M728 670 l3 -250 35 0 35 0 -3 180 c-2 99 0 180 3 180 3 0 35 -81 70
-180 l64 -180 48 0 47 0 0 250 0 250 -42 0 -41 0 6 -177 c3 -97 3 -172 -2
-167 -4 5 -29 70 -56 144 -77 216 -68 200 -123 200 l-47 0 3 -250z"/>
<path d="M1120 670 l0 -250 90 0 c102 0 146 14 178 55 44 56 37 154 -14 194
l-25 19 26 26 c20 21 25 35 25 78 0 98 -45 128 -190 128 l-90 0 0 -250z m181
170 c14 -8 19 -21 19 -55 0 -52 -16 -65 -79 -65 l-41 0 0 65 0 65 41 0 c22 0
49 -5 60 -10z m10 -207 c22 -19 31 -66 18 -102 -12 -33 -52 -54 -95 -49 -29 3
-29 4 -32 77 -4 100 -2 104 51 96 23 -4 49 -14 58 -22z"/>
<path d="M1490 669 l0 -251 103 4 c112 4 146 18 173 69 17 33 19 111 3 142 -6
12 -21 30 -33 39 l-21 17 23 24 c30 32 38 92 19 138 -21 52 -65 69 -176 69
l-91 0 0 -251z m182 164 c22 -20 23 -70 1 -95 -11 -12 -30 -18 -60 -18 l-43 0
0 65 0 65 42 0 c24 0 49 -7 60 -17z m16 -210 c18 -25 15 -87 -6 -113 -12 -15
-33 -24 -65 -27 l-47 -6 0 86 c0 81 1 86 23 89 32 5 80 -9 95 -29z"/>
</g>
</svg>
